<svg xmlns="http://www.w3.org/2000/svg" width="430" height="430" fill="none" viewBox="0 0 430 430"><path fill="#0b28a8" d="M380.108 158.91a81.694 81.694 0 0 1-77.07 82.46c-1.54.1-3.08.14-4.63.14h-130.28a39.06 39.06 0 0 0-39.06 38.79c-.16 21.64 18.11 39.34 39.75 39.34h91.57a42.647 42.647 0 0 1 42.64 42.64h-135.13c-44.95 0-82.27-35.87-82.75-80.8a81.73 81.73 0 0 1 77.09-82.48c1.54-.09 3.07-.13 4.62-.13h130.28a39.06 39.06 0 0 0 39.06-38.78c.16-21.63-18.11-39.34-39.75-39.34h-131.7a30.58 30.58 0 0 1-26.14 9.1l-14.29-1.9-25.26-3.36a21.395 21.395 0 0 1-18.57-21.21v-7.9a21.41 21.41 0 0 1 18.57-21.26l39.55-5.22a32 32 0 0 1 4.1-.28 30.7 30.7 0 0 1 22 9.38h132.68c44.93 0 82.24 35.86 82.72 80.81"/><path fill="#0b28a8" d="M80.488 103.38v-7.9a21.41 21.41 0 0 1 18.56-21.26l39.55-5.22a30.6 30.6 0 0 1 13.79 1.28l-29.95 3.94a21.41 21.41 0 0 0-18.57 21.26v7.9a21.39 21.39 0 0 0 18.57 21.21l25.26 3.36 4.65.62a30.5 30.5 0 0 1-13.75 1.28l-14.29-1.9-25.26-3.36a21.39 21.39 0 0 1-18.56-21.21m110.79 258.9h-23.38c-44.95 0-82.27-35.87-82.75-80.8a81.7 81.7 0 0 1 22.009-56.695 81.72 81.72 0 0 1 59.691-25.915h23.39c-1.55 0-3.08 0-4.62.13a81.73 81.73 0 0 0-77.09 82.48c.48 44.93 37.8 80.8 82.75 80.8m168.3-202.19a39.06 39.06 0 0 1-39.06 38.78h-23.38a39.064 39.064 0 0 0 39.06-38.78c.15-21.63-18.12-39.34-39.75-39.34h23.38c21.64 0 39.91 17.71 39.75 39.34" opacity=".5" style="mix-blend-mode:multiply"/><path stroke="#121331" stroke-linecap="round" stroke-linejoin="round" stroke-width="7" d="M80.478 98.87h-30.59m114.85 21.88h131.71c21.63 0 39.9 17.7 39.75 39.34a39.06 39.06 0 0 1-39.07 38.78h-130.28c-1.55 0-3.08 0-4.61.13a81.71 81.71 0 0 0-77.09 82.48c.48 44.93 37.8 80.79 82.74 80.79h135.14a42.65 42.65 0 0 0-42.64-42.64h-91.58c-21.63 0-39.9-17.69-39.75-39.34a39.056 39.056 0 0 1 39.07-38.79h130.26c1.55 0 3.09 0 4.62-.13a81.694 81.694 0 0 0 77.07-82.47c-.48-44.94-37.79-80.8-82.73-80.8h-132.61"/><path stroke="#121331" stroke-linecap="round" stroke-linejoin="round" stroke-width="7" d="M164.738 120.75a30.56 30.56 0 0 1-26.13 9.1l-39.55-5.27a21.39 21.39 0 0 1-18.57-21.2v-7.9a21.41 21.41 0 0 1 18.57-21.26l39.55-5.22a30 30 0 0 1 4.1-.28 30.6 30.6 0 0 1 22 9.38m-40.39-7.06v9.1m0 38.91v8.92"/></svg>